<?xml version="1.0" encoding="utf-8"?>
<!-- Generator: Adobe Illustrator 24.0.0, SVG Export Plug-In . SVG Version: 6.00 Build 0)  -->
<svg version="1.1" id="Layer_1" xmlns="http://www.w3.org/2000/svg" xmlns:xlink="http://www.w3.org/1999/xlink" x="0px" y="0px"
	 viewBox="0 0 238.1 450.3" style="enable-background:new 0 0 238.1 450.3;" xml:space="preserve">
<style type="text/css">
	.st0{fill:#6263B7;}
	.st1{fill:#90D0CC;}
	.st2{clip-path:url(#SVGID_2_);}
	.st3{opacity:0.37;fill:#87BAB4;enable-background:new    ;}
	.st4{fill:#E5AD93;}
	.st5{clip-path:url(#SVGID_4_);}
	.st6{opacity:0.27;fill:#D0A18C;enable-background:new    ;}
	.st7{clip-path:url(#SVGID_6_);}
	.st8{clip-path:url(#SVGID_8_);}
	.st9{clip-path:url(#SVGID_10_);}
	.st10{fill:#A3D6CE;}
	.st11{clip-path:url(#SVGID_12_);}
	.st12{opacity:0.56;fill:#A3D6CE;enable-background:new    ;}
	.st13{clip-path:url(#SVGID_14_);}
	.st14{fill:#D0A18C;}
	.st15{fill:#404C70;}
	.st16{fill:#A57563;}
	.st17{fill:#EFF3F8;}
	.st18{fill:#CB8D8B;}
	.st19{fill:#596984;}
</style>
<title>men_1</title>
<g>
	<g id="Layer_2_1_">
		<g id="OBJECTS">
			<path class="st0" d="M163.2,41.4c10.6-3.2,10.6-25.5-5.3-34c-9.8-5.2-18.9,0-25.1,4.3l1-0.9c0.5-0.5,1-1,1.5-1.5l0.7-0.7l0.7-0.8
				c1.8-2.1,3.3-4.4,4.6-6.8c-1.6,2.2-3.4,4.2-5.4,6.1l-0.7,0.7l-0.8,0.6c-0.5,0.4-1,0.8-1.6,1.2c-1.1,0.8-2.2,1.5-3.3,2.2
				c-1.7,1-3.5,1.9-5.4,2.7C123,10.7,121.4,4,105.8,3.1C91.2,2.3,78.2,18.6,72,25.8v-0.2c0.5-2.6,1.1-5.2,2-7.7
				c0.4-1.3,1-2.5,1.5-3.7c0.3-0.6,0.6-1.2,0.9-1.8l0.5-0.9l0.5-0.9c1.4-2.3,3-4.5,4.9-6.5c-2.1,1.7-4.1,3.7-5.8,5.9l-0.7,0.8
				l-0.6,0.9c-0.4,0.6-0.8,1.1-1.2,1.7c-0.7,1.2-1.5,2.4-2,3.6c-1.1,2.2-2.1,4.5-2.9,6.9c-0.2-0.8-0.4-1.5-0.5-2.3
				c-0.2-0.8-0.2-1.3-0.3-2l-0.2-1l-0.1-1c-0.3-2.7-0.2-5.5,0.1-8.2c-0.7,2.7-1.1,5.4-1.2,8.2v1v1c0,0.7,0,1.4,0.1,2
				c0.1,1.4,0.2,2.8,0.5,4.2c0.1,0.8,0.3,1.5,0.4,2.3l-0.1,0.3C51.9,27.6,45,43.3,46,64.9c1.3,27.7,42.6,96.8,28.7,26.6L95.1,67
				c0,0,41.5,9.6,64.9,2.1S163.2,41.4,163.2,41.4z"/>
			<path class="st1" d="M118,132.4c1,1,21.3,6.4,21.3,6.4l9.6,14.9c0,0,41,21.9,47.3,27.1c11.4,9.5,14,102.3,1.2,270.4h-44.3
				L101,205.8L118,132.4z"/>
			<g>
				<g>
					<defs>
						<path id="SVGID_1_" d="M118,132.4c1,1,21.3,6.4,21.3,6.4l9.6,14.9c0,0,41,21.9,47.3,27.1c11.4,9.5,14,102.3,1.2,270.4h-44.3
							L101,205.8L118,132.4z"/>
					</defs>
					<clipPath id="SVGID_2_">
						<use xlink:href="#SVGID_1_"  style="overflow:visible;"/>
					</clipPath>
					<g class="st2">
						<path class="st3" d="M148.3,159.6c0,0-8.5-17-9.6-14.9s-3.2,19.2-2.1,22.3s2.1,21.3,2.1,21.3s0-36.2,2.1-35.1
							c2.1,1.1,7.5,11.7,9.6,8.5l2.1-4.3L148.3,159.6z"/>
						<path class="st3" d="M182.9,223.4c0,0-1.5,41.5,5.9,76.6c0,0,3.2,7.5,0,8.5c-3.2,1.1-3.2,5.3-6.4,7.5
							c-3.2,2.1-11.4,5.1-11,7.9c0.4,2.7,13.1,4.9,13.1,4.9l12.8-2.1l5.3-10.6l-2.1-26.6L182.9,223.4"/>
						<path class="st3" d="M132.4,190.1c0,0,59.5,95,46.8,270.5l-41.5-17l-24.5-194.7L132.4,190.1"/>
						<path class="st3" d="M176.6,371.5c0,0,18.5,9.4,34.5-0.2s-4.3-24.5-4.3-24.5L167,364.4L176.6,371.5"/>
					</g>
				</g>
			</g>
			<path class="st4" d="M147.3,36.1c0,0,4.3,67-3.2,83S118.6,133,118.6,133s10.6,55.3,20.2,73.4l-63.9-71.3l-3.2-50L77,31.9
				C77,31.9,132.4,14.9,147.3,36.1z"/>
			<g>
				<g>
					<defs>
						<path id="SVGID_3_" d="M147.3,36.1c0,0,4.3,67-3.2,83S118.6,133,118.6,133s10.6,55.3,20.2,73.4l-63.9-71.3l-3.2-50L77,31.9
							C77,31.9,132.4,14.9,147.3,36.1z"/>
					</defs>
					<clipPath id="SVGID_4_">
						<use xlink:href="#SVGID_3_"  style="overflow:visible;"/>
					</clipPath>
					<g class="st5">
						<path class="st6" d="M140.9,126.6c0,0-29.8,22.3-55.3-17c0,0,13.8,40.4,40.4,30.9S140.9,126.6,140.9,126.6z"/>
						<path class="st6" d="M132.4,188.6c0,0-23.4-46-34.1-50.3s-30.9-9.6-30.9-9.6l6.4,33C73.9,161.7,127.1,200.5,132.4,188.6"/>
						<path class="st6" d="M98.3,41.4c1,1,9.6,0,14.9,5.3s23.4,18.1,38.3,10.6S142,43.6,142,43.6l-32-8.5L98.3,41.4z"/>
						<path class="st6" d="M70.3,88.3l1.4,5.3c0,0,6.4,9.6,13.8,4.3s-1-11.7-1-11.7L70.3,88.3"/>
					</g>
				</g>
			</g>
			<path class="st1" d="M64.8,132.4c0,0,34,6.4,42.6,17c8.5,10.6,76.6,90.1,71.3,301.8H44.9c2-11.8,18.9-102.3,6-162.4
				c-13-60.6-38.3-70.2-38.3-70.2l49-60.7L64.8,132.4z"/>
			<g>
				<g>
					<defs>
						<path id="SVGID_5_" d="M64.8,132.4c0,0,34,6.4,42.6,17c8.5,10.6,76.6,90.1,71.3,301.8H44.9c2-11.8,18.9-102.3,6-162.4
							c-13-60.6-38.3-70.2-38.3-70.2l49-60.7L64.8,132.4z"/>
					</defs>
					<clipPath id="SVGID_6_">
						<use xlink:href="#SVGID_5_"  style="overflow:visible;"/>
					</clipPath>
					<g class="st7">
						<path class="st3" d="M114.3,163.8c0,0-8.5-16-10.6-11.7s-5.3,24.5-5.3,24.5l-36.2-17.1c0,0,35.1,25.5,40.4,20.2
							s1-26.6,3.2-24.5L114.3,163.8z"/>
						<path class="st3" d="M59.6,245.6c0,0,15.3,36.3,21.7,66.1c6.4,29.8,6.4,18.1,10.6,12.8c4.3-5.3,4.3-6.4,4.3,1.1
							s17-8.5,9.6-1.1s19.2,1.1,11.7,5.3c-7.5,4.3,34.1,5.3,57.5-5.3c23.4-10.6-33,24.5-33,24.5l-54.3,11.7l-26.6-9.6
							C61.1,351.1,45.4,241.2,59.6,245.6"/>
						<path class="st3" d="M179,369.9c0,0-34.9,24.8-50.8,29.1c0,0-1,3.2-6.4,4.3c-5.4,1.1-14.9,8.5-17,6.4c0,0-54.3,12.8-62.8,4.2
							c-8.5-8.5,20.2-43.6,20.2-43.6S176.6,354.6,179,369.9"/>
					</g>
				</g>
			</g>
			<path class="st4" d="M177.4,324.5C150.2,335.4,118,340,118,340l-0.1,0.3c-3.2-1.1-17.8-5.9-20.7-4.1C94,338.3,77,350,78,352.2
				c1.1,2.1,7.5,11.7,7.5,11.7l28.5-11l-3.5,11.6c40.2,7.5,66.6,6.4,83.7,2.2C191.9,351.9,183.6,335.5,177.4,324.5z"/>
			<g>
				<g>
					<defs>
						<path id="SVGID_7_" d="M177.4,324.5C150.2,335.4,118,340,118,340l-0.1,0.3c-3.2-1.1-17.8-5.9-20.7-4.1
							C94,338.3,77,350,78,352.2c1.1,2.1,7.5,11.7,7.5,11.7l28.5-11l-3.5,11.6c40.2,7.5,66.6,6.4,83.7,2.2
							C191.9,351.9,183.6,335.5,177.4,324.5z"/>
					</defs>
					<clipPath id="SVGID_8_">
						<use xlink:href="#SVGID_7_"  style="overflow:visible;"/>
					</clipPath>
					<g class="st8">
						<path class="st6" d="M166.4,367.1c0-1.1,29.8-16,29.8-16l1,19.2l-14.9,2.1L166.4,367.1z"/>
						<path class="st6" d="M179.2,333l-0.9,0.2c-1.9-5.6-6-16.5-7.6-10.9c-1.3,4.4,0.1,9.2,1.4,12.3c-15.7,3.7-53,11.9-66.3,11.1
							c-17-1-23.4-3.2-27.7-6.4c-4.3-3.2-2.1,18.1-2.1,18.1l11.4,5.3l40.7-5.3l44.7-11.7l9.8-10.9L179.2,333z"/>
					</g>
				</g>
			</g>
			<path class="st1" d="M228.7,234.6c-4.3-59.6-42-54.8-42-54.8c-12.3,61.2,9,135.7,9,135.7c-5.8,3.5-11.9,6.5-18.3,9
				c6.2,11,14.5,27.4,16.9,42.1c26.8-6.5,31.2-20.3,31.2-20.3C230.1,309.2,231.2,271.8,228.7,234.6z"/>
			<g>
				<g>
					<defs>
						<path id="SVGID_9_" d="M228.7,234.6c-4.3-59.6-42-54.8-42-54.8c-12.3,61.2,9,135.7,9,135.7c-5.8,3.5-11.9,6.5-18.3,9
							c6.2,11,14.5,27.4,16.9,42.1c26.8-6.5,31.2-20.3,31.2-20.3C230.1,309.2,231.2,271.8,228.7,234.6z"/>
					</defs>
					<clipPath id="SVGID_10_">
						<use xlink:href="#SVGID_9_"  style="overflow:visible;"/>
					</clipPath>
					<g class="st9">
						<path class="st3" d="M226.8,295.8c0,0-14.6,10.6-18.9,12.8S195.4,327,195.4,327s-5.6-16.3-9.9-8.8
							c-4.3,7.4,11.5,47.6,11.5,47.6l5.4,4.1c0.1-5.5-0.2-11-0.7-16.5c2.4-2.7,5.8-4.3,9.4-4.4c7.5,0,19.2,1,19.2,1l12.8-44.7
							L226.8,295.8z"/>
					</g>
				</g>
			</g>
			<path class="st10" d="M188.1,371.2c3.3-1.4,6.8-2.2,10.4-2.3c6.5-0.3-6-49.8-9.9-52.5s-10.1,8.3-14.8,7s-2.5,5.3-2.5,5.3
				S184.5,355.3,188.1,371.2z"/>
			<g>
				<g>
					<defs>
						<path id="SVGID_11_" d="M188.1,371.2c3.3-1.4,6.8-2.2,10.4-2.3c6.5-0.3-6-49.8-9.9-52.5s-10.1,8.3-14.8,7s-2.5,5.3-2.5,5.3
							S184.5,355.3,188.1,371.2z"/>
					</defs>
					<clipPath id="SVGID_12_">
						<use xlink:href="#SVGID_11_"  style="overflow:visible;"/>
					</clipPath>
					<g class="st11">
						<path class="st12" d="M169.6,334.1c2.1-2.1,21.7-6.4,24.7-8.5s6.9,21.8,6,25.3s-7.8,7.7-7.5,8.8c0.3,1.1,1.3,7.5-0.8,4.3
							s-0.1-3.2-6.4-0.5C179.2,366,169.6,334.1,169.6,334.1z"/>
					</g>
				</g>
			</g>
			<path class="st4" d="M231.3,302.2l-2,4.3c-0.9,2.1-7.6,3.2-7.6,3.2c4.6-2,6.5-5,7.2-7.7c0.6-2.8,0.3-5.7-0.9-8.3
				c0,2.1-11.7,11.7-16,12.8s-14.9,20.2-14.9,20.2c-15.8,10.1-51.4,15.6-80.3,20.2c0,12.7,0.9,30,5.2,42.7
				c60.8-17.5,84.7-45.9,84.7-45.9c8.4,1.5,17.1,0,24.5-4.3c2.1-1,3.2-8.5,2.1-11.7s2.1-6.4,3.2-12.8
				C237.8,308.5,231.3,302.2,231.3,302.2z"/>
			<g>
				<g>
					<defs>
						<path id="SVGID_13_" d="M231.3,302.2l-2,4.3c-0.9,2.1-7.6,3.2-7.6,3.2c4.6-2,6.5-5,7.2-7.7c0.6-2.8,0.3-5.7-0.9-8.3
							c0,2.1-11.7,11.7-16,12.8s-14.9,20.2-14.9,20.2c-15.8,10.1-51.4,15.6-80.3,20.2c0,12.7,0.9,30,5.2,42.7
							c60.8-17.5,84.7-45.9,84.7-45.9c8.4,1.5,17.1,0,24.5-4.3c2.1-1,3.2-8.5,2.1-11.7s2.1-6.4,3.2-12.8
							C237.8,308.5,231.3,302.2,231.3,302.2z"/>
					</defs>
					<clipPath id="SVGID_14_">
						<use xlink:href="#SVGID_13_"  style="overflow:visible;"/>
					</clipPath>
					<g class="st13">
						<path class="st6" d="M121.7,345.8c0,0,6.4,35.1,12.8,41.5c6.4,6.4-8.5,4.3-8.5,4.3l-7.4-11.7
							C118.5,379.8,115.4,343.6,121.7,345.8"/>
					</g>
				</g>
			</g>
			<path class="st1" d="M81.8,351.6c0,0-13.8-129.8-44.7-136.2C6.3,209,1,235.6,1,235.6c-8.6,100,42,166.6,42,166.6
				c32-1.8,58-6.5,79.1-12.6c-4.2-12.7-5.2-30-5.2-42.7C97.1,349.9,81.8,351.6,81.8,351.6z"/>
			<path class="st10" d="M122.8,345.9c-3.5,0.6-7.1,0.6-10.6-0.1c-6.4-1-5.3,45.8-2.1,48.9c3.2,3.2,11.7-5.3,16-3.2
				c4.3,2.1,3.7-4.3,3.7-4.3S122.7,360.9,122.8,345.9z"/>
			<path class="st0" d="M142.4,61.5c-2.1-0.4-4.1-1-6.1-1.8s-3.9-1.7-5.7-2.8c-3.6-2.2-7-4.8-10.1-7.7l-0.5-0.5
				c10.6,6.5,23.2,13.7,33.6,2.3c12.8-13.8-6.4-27.7-6.4-27.7L109,15.9l-30.9,8.6L66.4,36.1l2.1,43.6l3.2,9.8l12.8-10.9
				c0,0,13.8-22.3,9.6-34c0,0,5.9-5.1,15.5-1.7c1.3,1.5,2.6,2.8,3.9,4.2c1.6,1.6,3.3,3,5,4.4c3.5,2.8,7.2,5.2,11.2,7.2
				c2,0.9,4,1.8,6.1,2.4c2.1,0.6,4.3,1.1,6.5,1.3s4.4,0.2,6.6,0c2.2-0.3,4.3-0.7,6.4-1.4c-2.1,0.5-4.2,0.8-6.4,0.9
				C146.7,62.1,144.5,61.9,142.4,61.5z"/>
			<path class="st14" d="M89.1,80.8c3,7.4,1.2,15-4,17.1s-11.8-2.2-14.7-9.6c-3-7.4-1.2-15,4-17.1C79.5,69.1,86.1,73.4,89.1,80.8z"
				/>
			<path class="st15" d="M84.5,78.7c0,0-3.2-56.4,39.4-63.8c0,0,4.3-9.6-7.5-9.6c0,0-44.7,7.7-34.6,75.7L84.5,78.7z"/>
			<circle class="st15" cx="81.8" cy="83.5" r="12.2"/>
			<path class="st16" d="M109,77.6c0.7-1.1,1.7-2.1,2.9-2.8c1.2-0.7,2.6-1.1,4-1.1s2.8,0.4,4,1.1c0.6,0.4,1.1,0.8,1.6,1.2
				c0.5,0.5,0.9,1,1.3,1.5c-0.6-0.3-1.1-0.7-1.7-1l-0.8-0.4l-0.4-0.2l-0.4-0.2l-0.9-0.3l-0.9-0.2c-0.3-0.1-0.6-0.1-0.9-0.1
				s-0.6,0-0.9,0c-1.2,0-2.4,0.3-3.6,0.7C111.1,76.3,110,76.9,109,77.6z"/>
			<path class="st16" d="M134.5,77.6c0.7-1.1,1.7-2.1,2.9-2.8c1.2-0.7,2.6-1.1,4-1.1s2.8,0.4,4,1.1c0.6,0.4,1.1,0.8,1.6,1.2
				c0.5,0.5,0.9,1,1.3,1.5c-0.6-0.3-1.1-0.7-1.7-1l-0.8-0.4l-0.4-0.2l-0.4-0.2c-0.3-0.1-0.6-0.2-0.9-0.3l-0.9-0.2
				c-0.3-0.1-0.6-0.1-0.9-0.1c-0.3,0-0.6,0-0.9,0c-1.2,0-2.4,0.3-3.6,0.7C136.7,76.3,135.5,76.9,134.5,77.6z"/>
			<path class="st0" d="M105,68.7c0.5-1.4,1.3-2.6,2.2-3.8c1-1.2,2.1-2.2,3.5-2.9c0.7-0.4,1.4-0.7,2.1-1c0.8-0.3,1.5-0.4,2.3-0.3
				c1.6,0,3.1,0.6,4.3,1.7l-0.1,0.2c-0.7,0.2-1.4,0.3-2.2,0.3c-0.7,0.1-1.3,0.2-1.9,0.3c-1.3,0.1-2.5,0.3-3.7,0.6
				c-1.2,0.5-2.4,1.1-3.4,2c-1.1,0.9-2.1,1.9-2.9,3L105,68.7z"/>
			<path class="st0" d="M151.2,68.7c-0.5-1.4-1.3-2.6-2.2-3.8c-1-1.2-2.1-2.2-3.5-2.9c-0.7-0.4-1.4-0.7-2.1-1
				c-0.8-0.3-1.6-0.4-2.3-0.3c-1.6,0.1-3.1,0.6-4.3,1.7l0.1,0.2c0.7,0.2,1.4,0.3,2.2,0.3c0.7,0.1,1.3,0.2,1.9,0.3
				c1.3,0.1,2.5,0.3,3.7,0.6c1.2,0.5,2.4,1.1,3.4,2c1.1,0.9,2.1,1.9,2.9,3L151.2,68.7z"/>
			<path class="st17" d="M110,102.1c0,0,4.3,12.8,21.3,10.6c0,0-6.4,8.5-16,7.5C105.8,119.1,110,102.1,110,102.1z"/>
			<path class="st15" d="M109.2,117.8c-2.2,0-4.5-0.1-6.8-0.2c-17-1.2-20.4-28-20.6-29.1l3.2-0.4c0,0.2,3.2,25.3,17.7,26.3
				c9.5,0.6,19-0.1,28.2-2l0.8,3.1C124.3,117,116.8,117.8,109.2,117.8z"/>
			<path class="st15" d="M138.7,113c0.2,1.8-2.7,3.6-6.5,4c-3.8,0.5-7-0.6-7.3-2.3s2.7-3.6,6.5-4C135.2,110.2,138.5,111.3,138.7,113
				z"/>
			<path class="st18" d="M128,77.9c0,0,10.5,18.2,9.5,19.3c-0.9,1.2-10.2,4.3-10.2,4.3L128,77.9z"/>
			<path class="st19" d="M87.7,83.5c0,3.2-2.6,5.8-5.8,5.8S76,86.7,76,83.5s2.6-5.8,5.8-5.8S87.7,80.2,87.7,83.5L87.7,83.5z"/>
		</g>
	</g>
</g>
</svg>
