<svg xmlns="http://www.w3.org/2000/svg" viewBox="0 0 139.98 298.97"><defs><style>.cls-1{fill:#f3bc8a;}.cls-2{fill:#ae6428;}.cls-3{fill:#bf752b;}.cls-4{fill:#fdd1a3;}.cls-5{fill:#c17529;}.cls-6{fill:#54483c;}.cls-7{fill:#6b5e52;}.cls-8{fill:#fff;}.cls-9{fill:#e1a574;}.cls-10{fill:#3c5575;}.cls-11{fill:#4b749b;}.cls-12{fill:#365270;}</style></defs><title>women</title><g id="Layer_2" data-name="Layer 2"><g id="OBJECTS"><polygon class="cls-1" points="78.86 75.91 69.98 79.58 61.1 75.91 54.62 122.51 69.98 140.88 85.33 122.72 78.86 75.91"/><path class="cls-2" d="M55.77,2.13a43,43,0,0,1,17.51-2c11.53,1,26.36,5.05,28.05,18.89.64,5.33-4.66,14.82-7.71,19.19C86.77,48,78.86,51.11,67.14,50.61c-9.63-.42-17.2-4-23-12-4.83-6.7-7.21-18.92-2.26-26.12A27.49,27.49,0,0,1,55.77,2.13Z"/><path class="cls-3" d="M108.23,49C114.28,31.36,102,12.9,76,12.9a35.14,35.14,0,0,0-19.66,5.5C43,23.21,34,29.26,34.92,51.82c.83,20.34,15.73,42.75,34.41,42.75a24.42,24.42,0,0,0,13.56-4.49C99.4,90.74,105.33,57.52,108.23,49Z"/><path class="cls-4" d="M34.48,67.83a4.35,4.35,0,0,0-1.75,4.54A12.83,12.83,0,0,0,34.93,77l4.43,6.77c.33.51.73,1.06,1.33,1.14.82.11,1.43-.71,1.78-1.46,1.57-3.31,2.05-7.75.12-11C41.12,70,37.7,66,34.48,67.83Z"/><path class="cls-4" d="M105.49,67.83a4.39,4.39,0,0,1,1.75,4.54A12.85,12.85,0,0,1,105,77l-4.42,6.77c-.34.51-.74,1.06-1.34,1.14-.81.11-1.43-.71-1.78-1.46-1.56-3.31-2-7.75-.12-11C98.84,70,102.27,66,105.49,67.83Z"/><path class="cls-4" d="M102,40.67l-32-.89-32,.89a173.12,173.12,0,0,0,2.67,40c2.32,11.63,11.87,21.6,19.44,27.91a15.44,15.44,0,0,0,19.75,0C87.43,102.25,97,92.28,99.3,80.65A173.44,173.44,0,0,0,102,40.67Z"/><path class="cls-3" d="M50.73,40.67C57,45.92,63.25,51.23,70.54,54.86s15.8,5.44,23.67,3.34S109,49.47,109.86,41.38,104.16,24.68,96,24.74c-5.26,0-9.88,3.26-14.63,5.54a43.68,43.68,0,0,1-32.62,1.9C48.68,34.73,48.78,39,50.73,40.67Z"/><path class="cls-3" d="M41.5,50c-4.16,5.84-1.71,18.47-1.45,27.9-2.81-7.48-6.33-27.38-3.87-35s8.73-11.81,16.53-13.57,17.49,3.8,20.56,11.18C60.86,39.62,50,39.43,41.5,50Z"/><path class="cls-3" d="M98.11,50c4.16,5.84,1.9,18.84,1.64,28.27,2.81-7.49,6.15-27.75,3.68-35.36S94.7,31.14,86.9,29.38s-17.49,3.8-20.56,11.18C78.75,39.62,89.63,39.43,98.11,50Z"/><path class="cls-5" d="M48.61,62.4a10,10,0,0,1,9.26-.61c2.15.89,3.09-2.6,1-3.48a13.41,13.41,0,0,0-12,1c-2,1.2-.18,4.32,1.82,3.12Z"/><path class="cls-5" d="M94,59.28a13.41,13.41,0,0,0-12-1c-2.12.87-1.19,4.37,1,3.48a10,10,0,0,1,9.26.61c2,1.2,3.82-1.92,1.82-3.12Z"/><path class="cls-5" d="M54.86,75.35c4.65,0,4.66-7.22,0-7.22s-4.65,7.22,0,7.22Z"/><path class="cls-5" d="M85.49,75.35c4.64,0,4.65-7.22,0-7.22s-4.66,7.22,0,7.22Z"/><path class="cls-1" d="M72.72,78.58a8.37,8.37,0,0,1,.81,3.9c-.17,1.33-1.39,2.64-2.7,2.36a2.94,2.94,0,0,0,4-.49,5.06,5.06,0,0,0,.88-4.25,21.5,21.5,0,0,0-1.57-4.2A39.78,39.78,0,0,1,71.21,60c-1.53,1.68-.8,6.69-.62,8.83A38,38,0,0,0,72.72,78.58Z"/><path class="cls-3" d="M60.67,94c.93,4,4.77,9.72,9.37,9.72S78.49,98,79.42,94a29.31,29.31,0,0,1-18.75,0Z"/><path class="cls-6" d="M36.59,76.34l-2.9-12c-3.75-12.76-1.79-25.67,5.38-35.44,6.79-9.25,16.69-14.55,27.16-14.55v3.53C56.9,17.85,48,22.63,41.92,31c-6.52,8.88-8.28,20.69-4.83,32.39l0,.09L40,75.51Z"/><path class="cls-3" d="M73.87,13s-16.59.83-22.17,9.75S66.76,33.05,66.76,33.05Z"/><path class="cls-6" d="M57.3,93.85c-1.61-.29-3.07.29-3.49,1.3-3.36-.52-8-1.56-9.31-3.44a42.23,42.23,0,0,1-3.74-7.49c2.63-1,4.19-4.71,3.55-8.87-.71-4.52-3.77-7.8-6.84-7.32s-5,4.53-4.28,9.06,3.68,7.69,6.7,7.34a43,43,0,0,0,3.89,7.8c1.53,2.14,6.43,3.26,9.93,3.8a3.29,3.29,0,0,0,2.82,2.2c1.78.31,3.4-.42,3.61-1.63S59.08,94.16,57.3,93.85Z"/><path class="cls-6" d="M56.31,93.79a2.88,2.88,0,0,0-2.37,1.12l.72.12A2.3,2.3,0,0,1,56.31,93.79Z"/><path class="cls-7" d="M34,77c-.68-4.35,1.07-8.26,3.93-9a2.89,2.89,0,0,0-.5,0c-3.07.48-5,4.53-4.28,9.06s3.68,7.69,6.7,7.34l.85-.12C37.72,84.66,34.74,81.42,34,77Z"/><path class="cls-7" d="M39.07,28.87c-7.17,9.77-9.13,22.68-5.38,35.44L35,69.85c.16-.18.34-.36.52-.53l-1-4.28c-3.76-12.75-1.8-25.67,5.38-35.43,6.58-9,16.21-14.8,26.33-15.15v-.14C55.76,14.32,45.86,19.62,39.07,28.87Z"/><path class="cls-8" d="M84.59,117l-6,10.63a9.88,9.88,0,0,1-17.2,0l-6-10.63-5.56,4.66V298.75H90.14V121.67Z"/><polygon class="cls-9" points="82.28 248.43 77 250.29 67.54 250.75 58.69 255.56 55.74 258.98 52.95 261.15 53.57 266.12 52.64 270 53.57 274.5 56.98 277.14 70.8 277.91 86.47 269.38 82.28 248.43"/><path class="cls-10" d="M84.59,117,80,178.52V299h45.29s-4.33-41-18.79-66.49c0,0,3.86-67.93,22.65-101.18Z"/><path class="cls-11" d="M84.59,117,80,178.52v64.56s8.68-42.4,19.76-59.26l-8.19-7.71L109.43,125Z"/><path class="cls-12" d="M129.19,131.3l-5.91,11.27c-6.3,15.7-10.65,38.8-12.66,51.05l1.71,18.14L77.64,245.49l1.92,35.17,51.09-45a21.71,21.71,0,0,0,7.14-13C145.82,169.38,129.19,131.3,129.19,131.3Z"/><path class="cls-10" d="M55.39,117l4.54,61.51V299H14.64s4.34-41,18.8-66.49c0,0-3.86-67.93-22.65-101.18Z"/><path class="cls-11" d="M55.39,117l4.54,61.51v64.56s-8.67-42.4-19.75-59.26l8.19-7.71L30.54,125Z"/><polygon class="cls-1" points="60.09 248.43 65.37 250.29 74.83 250.75 83.68 255.56 86.63 258.98 89.42 261.15 88.8 266.12 89.73 270 88.8 274.5 85.39 277.14 71.58 277.91 55.9 269.38 60.09 248.43"/><path class="cls-12" d="M10.79,131.3l5.91,11.27c6.3,15.7,10.65,38.8,12.66,51.05l-1.71,18.14,34.69,33.73-1.92,35.17-51.1-45a21.69,21.69,0,0,1-7.13-13C-5.84,169.38,10.79,131.3,10.79,131.3Z"/></g></g></svg>